<?xml version="1.0" encoding="UTF-8"?>
<svg id="Layer_1" xmlns="http://www.w3.org/2000/svg" version="1.1" viewBox="0 0 144 48">
  <!-- Generator: Adobe Illustrator 29.2.1, SVG Export Plug-In . SVG Version: 2.1.0 Build 116)  -->
  <defs>
    <style>
      .st0 {
        fill: #fff;
      }

      .st1 {
        fill: #f0f0f0;
      }

      .st2 {
        fill: none;
        stroke: #f0f0f0;
        stroke-width: .5px;
      }

      .st3, .st4 {
        fill: #1a1813;
      }

      .st4 {
        fill-rule: evenodd;
      }
    </style>
  </defs>
  <rect class="st3" x=".2" y=".2" width="143.5" height="47.5" rx="7.8" ry="7.8"/>
  <rect class="st2" x=".2" y=".2" width="143.5" height="47.5" rx="7.8" ry="7.8"/>
  <rect class="st1" x="14" y="9.3" width="22" height="29.4" rx="3" ry="3"/>
  <path class="st0" d="M49.2,30v-11.4h4.3c1.9,0,3.4,1.5,3.4,3.4s-.3,1.5-.8,2c1,.5,1.6,1.5,1.6,2.7,0,1.9-1.5,3.3-3.5,3.3h-5ZM51.7,23.2h1.4c.7,0,1.2-.5,1.2-1.1s-.5-1.2-1.2-1.2h-1.4v2.3ZM51.7,27.7h2.2c.7,0,1.2-.5,1.2-1.1s-.5-1.1-1.2-1.1h-2.2v2.3ZM62.9,30.2c-2.3,0-4.2-1.8-4.2-4.2s1.9-4.2,4.2-4.2,4.2,1.8,4.2,4.2-1.9,4.2-4.2,4.2ZM62.9,27.9c1,0,1.8-.8,1.8-1.9s-.8-1.9-1.8-1.9-1.8.8-1.8,1.9.8,1.9,1.8,1.9ZM72.3,30.2c-2.3,0-4.2-1.8-4.2-4.2s1.9-4.2,4.2-4.2,4.2,1.8,4.2,4.2-1.9,4.2-4.2,4.2ZM72.3,27.9c1,0,1.8-.8,1.8-1.9s-.8-1.9-1.8-1.9-1.8.8-1.8,1.9.8,1.9,1.8,1.9ZM78,30v-12h2.4v6.9l2.3-2.9h2.9l-2.9,3.6,3.6,4.4h-2.9l-3-3.6v3.6h-2.4ZM90.2,30v-8h2.4v.8c.4-.5,1.2-1,2.2-1,2,0,3.1,1.5,3.1,3.6v4.6h-2.4v-4.2c0-1.1-.4-1.8-1.3-1.8s-1.6.7-1.6,2.1v3.9h-2.4ZM103.5,30.2c-2.3,0-4.2-1.8-4.2-4.2s1.9-4.2,4.2-4.2,4.2,1.8,4.2,4.2-1.9,4.2-4.2,4.2ZM103.5,27.9c1,0,1.8-.8,1.8-1.9s-.8-1.9-1.8-1.9-1.8.8-1.8,1.9.8,1.9,1.8,1.9ZM116,30l-1.4-4.2-1.4,4.2h-2.4l-2.6-8h2.6l1.4,4.9,1.5-4.9h1.9l1.5,4.9,1.4-4.9h2.6l-2.6,8h-2.4Z"/>
  <g id="_Слой_1">
    <path class="st4" d="M26.9,12.7c-.7.6-1.3,1.2-1.4,1.2,0,0,.4-1,1-1.9l.5.7h0ZM30.2,17.9c-.6.3-1,.4-1.1.4,0,0,.3-.3.8-.7l.2.3h0ZM33.5,23.9c-1.3,0-3,0-3-.1,0-.1,1.5-.4,2.8-.5,0,.2.2.4.3.7h0ZM32.8,31.2c-1.1-.5-3.5-1.8-3.5-1.9,0-.2,2.5.8,3.7,1.2,1.3.5,1,1.2-.2.7h0ZM28,36.7c-.8-1-2.3-2.9-2.2-3,0-.1,1.8,1.6,2.7,2.4.3.3.4.6.5.8-.2,0-.4.1-.5.2-.1,0-.3-.2-.4-.4h0ZM20.7,36.7c0-.3,0-.5,0-.6,0,0,.2.3.4.7-.1,0-.2-.1-.4-.2h0ZM25.3,11.6c-.7,1.1-2.2,3.4-2.3,3.4-.1,0,1.1-2.6,1.6-3.6.3-.5.5-.9.6-1,.3.3.4.4.4.6,0,.2,0,.4-.3.7h0ZM29.4,16.8c-1.1.7-2.8,1.6-2.9,1.5,0-.1,1.5-1.3,2.5-2.1l.4.6h0ZM31.9,22.5c-1.2.1-3.7.2-3.7,0,0-.2,2.4-.6,3.5-.8.6-.1.9,0,1,.2,0,.2-.1.5-.8.5ZM31.1,28.8c-1.2-.4-3.4-1.4-3.4-1.6,0-.2,2.4.5,3.5.8,1.3.4,1,1.2-.1.7h0ZM27.6,34c-.9-.9-2.4-2.8-2.4-2.9,0,0,1.9,1.5,2.8,2.3,1,.9.4,1.5-.4.6h0ZM22.2,37.3c-.4-1.2-1-3.6-.9-3.6.1,0,1.1,2.2,1.5,3.3,0,.2.1.4.2.6-.3,0-.6-.1-.8-.2,0,0,0,0,0,0ZM28.5,15.4c-.8.6-1.6,1-1.6.9,0,0,.6-.7,1.3-1.4,0,0,.3.5.3.5ZM32,20.8c-1.3.2-2.6.4-2.7.3,0-.1,1.1-.5,2.3-.9l.4.6h0ZM33.7,27.7c-1.5-.4-4.3-1.3-4.3-1.5,0-.2,2.9.3,4.3.5.2,0,.3,0,.5.1v.4c0,.2,0,.3,0,.5-.2,0-.4,0-.6,0h0ZM30.6,34.5c-1.1-1-3.9-3.7-3.4-3.4.5.3,2.7,1.8,3.8,2.7,0,0,0,0,.1.1,1.2.9.5,1.6-.6.6h0ZM24.2,37.7c-.6-1.4-1.2-3.1-1.1-3.2.1,0,1.2,1.9,2,3.2h0s0,0,0,0c-.3,0-.5,0-.8,0h0ZM34.2,29.8c-.2,0-.4,0-.6-.2-.6-.2-1.1-.6-1-.7,0-.2.6-.1,1.2.1.1,0,.3.1.4.2,0,.2,0,.4,0,.6ZM30,36.4c-.1-.1-.3-.2-.4-.4-.5-.5-.7-1-.6-1.1.1-.1.6.2,1.1.7.2.2.3.3.4.5-.2.1-.3.2-.5.3ZM24.3,16c-1.2,1.6-3.3,3.9-3.8,4.5-.5.6,2.1-3.4,3.2-4.9,1.3-1.8,1.8-1.1.6.5ZM27.2,19.6c-1.8.9-5.3,2.5-5.3,2.3,0-.1,3.4-2.1,5.1-3,2-1.1,2.1-.2.3.7ZM28.1,24.1c-2,0-5.8,0-5.8-.2,0-.2,3.9-.4,5.9-.5,2.2-.1,1.9.7,0,.7ZM27,28.6c-1.8-.9-5.6-2.9-5.1-2.8.4.1,3.7,1.4,5.4,2.2,2.1.9,1.5,1.5-.3.6h0ZM24.1,32.1c-1.2-1.6-3.5-4.6-3.4-4.7.1,0,2.7,2.9,4,4.3,1.5,1.7.6,2-.6.4h0ZM19.9,34c-.4-1.9-1.1-5.7-1-5.8.2,0,1.2,3.8,1.7,5.6.6,2.2-.3,2-.7.1h0ZM16,30.9c.4-1.5.8-2.8.9-2.7.1,0-.2,1.9-.5,3.7-.1-.3-.2-.7-.3-1ZM21.6,16.3c-1,2.1-3.1,6.8-3.3,6.7-.2,0,1-3.2,2.2-6,.7-1,1.4-2,2.1-3.2,0,.4,0,.3-.9,2.5ZM24.6,18.7c-2.6,2.1-6.6,5.2-6,4.5.6-.6,3.1-2.9,5.5-5.1,2.9-2.5,3.1-1.6.5.6h0ZM26.3,22.3c-3.2.7-7.4,1.4-7.4,1.3,0,0,4-1.3,7.2-2.2,3.7-1,3.7,0,.2.8ZM26.1,26c-3.3-.9-7.3-1.8-7.2-1.9,0-.1,4.2.5,7.5,1.1,3.7.7,3.1,1.7-.2.8h0ZM24.4,29.4c-2.6-2.1-5.9-5-5.7-4.9.2,0,3.6,2.3,6.2,4.3,3.1,2.3,2.1,2.8-.5.7ZM21.3,31.8c-1.4-3.1-3.1-6.9-3-6.9s2.2,3.6,3.7,6.6c1.8,3.4.7,3.5-.8.4h0ZM17.6,32.5c0-2,.2-7.5.4-7.5s.4,4.2.5,7.5c0,1.2,0,2-.2,2.4-.7-.7-.7-1-.6-2.4h0ZM19.2,18.9c-.2.5-.3.8-.3.8,0,0,0-.1,0-.3l.3-.5h0ZM15.7,28.1c.9-1.8,1.8-3.3,1.8-3.3,0,0-.8,2.5-1.8,4.9,0-.6-.1-1.1,0-1.7ZM16.1,25.2c.6-.4,1-.6,1-.6,0,0-.4.6-1.2,1.3,0-.2.1-.5.2-.7ZM16.4,24.2c.3,0,.5,0,.5,0,0,0-.2.2-.6.3v-.3c0,0,0,0,0,0ZM16.7,23.6c.2,0,.3.1.2.1,0,0-.1,0-.3,0v-.2c0,0,0,0,0,0ZM16.9,23.1c.1.2.2.3.2.3,0,0-.1,0-.3,0v-.2ZM17.2,22.3c.2.4.2.7.2.7,0,0-.2-.1-.3-.4,0,0,.2-.3.2-.3ZM18.1,20.6c0,1.4-.2,2.3-.3,2.3,0,0-.1-.6-.2-1.4.2-.3.3-.6.5-.9h0Z"/>
  </g>
</svg>